<svg id="visual" viewBox="0 0 900 600" width="900" height="600" xmlns="http://www.w3.org/2000/svg" xmlns:xlink="http://www.w3.org/1999/xlink" version="1.1"><rect x="0" y="0" width="900" height="600" fill="#262223"></rect><path d="M0 434L100 474L200 438L300 470L400 462L500 410L600 423L700 400L800 400L900 462L900 601L800 601L700 601L600 601L500 601L400 601L300 601L200 601L100 601L0 601Z" fill="#262223"></path><path d="M0 452L100 442L200 436L300 499L400 473L500 468L600 435L700 453L800 488L900 458L900 601L800 601L700 601L600 601L500 601L400 601L300 601L200 601L100 601L0 601Z" fill="#565253"></path><path d="M0 522L100 484L200 523L300 489L400 472L500 524L600 518L700 505L800 471L900 518L900 601L800 601L700 601L600 601L500 601L400 601L300 601L200 601L100 601L0 601Z" fill="#8a8888"></path><path d="M0 523L100 537L200 535L300 513L400 546L500 518L600 513L700 536L800 523L900 535L900 601L800 601L700 601L600 601L500 601L400 601L300 601L200 601L100 601L0 601Z" fill="#c3c2c2"></path><path d="M0 573L100 544L200 545L300 562L400 556L500 565L600 578L700 562L800 549L900 558L900 601L800 601L700 601L600 601L500 601L400 601L300 601L200 601L100 601L0 601Z" fill="#ffffff"></path></svg>