<svg width="10242" height="3281" viewBox="0 0 10242 3281" fill="none" xmlns="http://www.w3.org/2000/svg">
<g clip-path="url(#clip0_263_164)">
<path d="M4272.71 2684.92H4087.48L4052.15 2770.41H3957.54L4135.36 2371.46H4226.55L4404.94 2770.41H4308.05L4272.71 2684.92ZM4243.64 2614.82L4180.38 2462.07L4117.12 2614.82H4243.64ZM4729.21 2777.25C4672.22 2777.25 4627.77 2761.48 4595.85 2729.94C4564.31 2698.41 4548.55 2653.38 4548.55 2594.87V2371.46H4640.87V2591.45C4640.87 2662.88 4670.51 2698.6 4729.78 2698.6C4758.66 2698.6 4780.7 2690.05 4795.9 2672.95C4811.09 2655.47 4818.69 2628.31 4818.69 2591.45V2371.46H4909.88V2594.87C4909.88 2653.38 4893.92 2698.41 4862.01 2729.94C4830.47 2761.48 4786.21 2777.25 4729.21 2777.25ZM5191.07 2446.69H5063.4V2371.46H5411.06V2446.69H5283.4V2770.41H5191.07V2446.69ZM5762.37 2777.25C5720.95 2777.25 5683.53 2768.32 5650.09 2750.46C5617.03 2732.6 5591.01 2708.1 5572.01 2676.94C5553.39 2645.4 5544.08 2610.07 5544.08 2570.93C5544.08 2531.8 5553.39 2496.65 5572.01 2465.49C5591.01 2433.96 5617.03 2409.26 5650.09 2391.4C5683.53 2373.55 5720.95 2364.62 5762.37 2364.62C5803.78 2364.62 5841.02 2373.55 5874.07 2391.4C5907.13 2409.26 5933.16 2433.96 5952.15 2465.49C5971.15 2496.65 5980.65 2531.8 5980.65 2570.93C5980.65 2610.07 5971.15 2645.4 5952.15 2676.94C5933.16 2708.1 5907.13 2732.6 5874.07 2750.46C5841.02 2768.32 5803.78 2777.25 5762.37 2777.25ZM5762.37 2698.6C5785.92 2698.6 5807.2 2693.28 5826.2 2682.64C5845.2 2671.62 5860.02 2656.42 5870.65 2637.04C5881.67 2617.67 5887.18 2595.63 5887.18 2570.93C5887.18 2546.23 5881.67 2524.2 5870.65 2504.82C5860.02 2485.44 5845.2 2470.43 5826.2 2459.8C5807.2 2448.78 5785.92 2443.27 5762.37 2443.27C5738.81 2443.27 5717.53 2448.78 5698.53 2459.8C5679.54 2470.43 5664.53 2485.44 5653.51 2504.82C5642.87 2524.2 5637.55 2546.23 5637.55 2570.93C5637.55 2595.63 5642.87 2617.67 5653.51 2637.04C5664.53 2656.42 5679.54 2671.62 5698.53 2682.64C5717.53 2693.28 5738.81 2698.6 5762.37 2698.6ZM6527.07 2770.41L6526.5 2531.04L6409.1 2728.23H6367.49L6250.66 2536.17V2770.41H6164.03V2371.46H6240.4L6389.72 2619.38L6536.76 2371.46H6612.56L6613.7 2770.41H6527.07ZM7085.08 2684.92H6899.85L6864.52 2770.41H6769.91L6947.73 2371.46H7038.92L7217.31 2770.41H7120.42L7085.08 2684.92ZM7056.02 2614.82L6992.75 2462.07L6929.49 2614.82H7056.02ZM7435.29 2446.69H7307.62V2371.46H7655.28V2446.69H7527.62V2770.41H7435.29V2446.69ZM7818.95 2371.46H7911.27V2770.41H7818.95V2371.46ZM8251.03 2777.25C8219.49 2777.25 8188.9 2773.07 8159.27 2764.71C8130.01 2755.97 8106.45 2744.76 8088.59 2731.08L8119.94 2661.55C8137.04 2674.09 8157.37 2684.16 8180.92 2691.76C8204.48 2699.36 8228.04 2703.16 8251.6 2703.16C8277.81 2703.16 8297.19 2699.36 8309.73 2691.76C8322.27 2683.78 8328.54 2673.33 8328.54 2660.41C8328.54 2650.91 8324.74 2643.12 8317.14 2637.04C8309.92 2630.58 8300.42 2625.46 8288.64 2621.66C8277.24 2617.86 8261.66 2613.68 8241.91 2609.12C8211.51 2601.9 8186.62 2594.68 8167.25 2587.46C8147.87 2580.24 8131.15 2568.65 8117.09 2552.69C8103.41 2536.74 8096.57 2515.46 8096.57 2488.86C8096.57 2465.68 8102.84 2444.79 8115.38 2426.17C8127.92 2407.17 8146.73 2392.16 8171.8 2381.14C8197.26 2370.13 8228.23 2364.62 8264.7 2364.62C8290.16 2364.62 8315.05 2367.66 8339.37 2373.74C8363.68 2379.81 8384.96 2388.55 8403.2 2399.95L8374.7 2470.05C8337.85 2449.16 8300.99 2438.71 8264.13 2438.71C8238.3 2438.71 8219.11 2442.89 8206.57 2451.25C8194.41 2459.61 8188.33 2470.62 8188.33 2484.3C8188.33 2497.98 8195.36 2508.24 8209.42 2515.08C8223.86 2521.54 8245.71 2528 8274.96 2534.46C8305.36 2541.68 8330.25 2548.89 8349.62 2556.11C8369 2563.33 8385.53 2574.73 8399.21 2590.31C8413.27 2605.89 8420.3 2626.98 8420.3 2653.57C8420.3 2676.37 8413.84 2697.27 8400.92 2716.26C8388.38 2734.88 8369.38 2749.7 8343.92 2760.72C8318.47 2771.74 8287.5 2777.25 8251.03 2777.25ZM8960.42 2770.41L8959.85 2531.04L8842.44 2728.23H8800.84L8684 2536.17V2770.41H8597.37V2371.46H8673.74L8823.06 2619.38L8970.11 2371.46H9045.91L9047.05 2770.41H8960.42ZM9564.59 2696.32V2770.41H9255.69V2371.46H9557.18V2445.55H9347.45V2532.18H9532.67V2603.99H9347.45V2696.32H9564.59Z" fill="black"/>
<path d="M2357.59 2092.97V2980.63L2494.61 2781.06V2134.68L2920.56 1714.68L2831.2 1634.25L2357.59 2092.97Z" fill="black" stroke="black" stroke-width="5.95743"/>
<path d="M2059.71 1958.92L2059.71 2442.63L2196.73 2600.5L2196.73 2018.5L2479.71 1741.48V905.443H2351.63V1690.84L2059.71 1958.92Z" fill="black" stroke="black" stroke-width="5.95743"/>
<circle cx="2412.31" cy="760.822" r="145.957" stroke="black" stroke-width="119.149"/>
<path d="M2119.05 1189.08V1804.52L1909.15 1899.9V1773.85L1990.97 1735.33V1189.08H2119.05Z" fill="black" stroke="black" stroke-width="5.95743"/>
<circle cx="2058.65" cy="1040.94" r="145.957" stroke="black" stroke-width="119.149"/>
<circle cx="3003.98" cy="1527.02" r="145.957" stroke="black" stroke-width="119.149"/>
<mask id="path-8-inside-1_263_164" fill="white">
<path d="M1450 1070C1291.14 1070 1138.78 1133.11 1026.44 1245.44C914.109 1357.78 851 1510.14 851 1669C851 1827.86 914.109 1980.22 1026.44 2092.56C1138.78 2204.89 1291.14 2268 1450 2268L1450 1669V1070Z"/>
</mask>
<path d="M1450 1070C1291.14 1070 1138.78 1133.11 1026.44 1245.44C914.109 1357.78 851 1510.14 851 1669C851 1827.86 914.109 1980.22 1026.44 2092.56C1138.78 2204.89 1291.14 2268 1450 2268L1450 1669V1070Z" stroke="black" stroke-width="160" mask="url(#path-8-inside-1_263_164)"/>
<path d="M1500 363H1710L1712 2974.5H1500L1445.5 2726L1274 2649L1100.5 2556.5L852 2726L609.5 2465.5L779 2217C779 2207 698 2091 658 1902L367 1853.5V1496L658 1467C696.8 1384.6 754.833 1185.67 779 1111L609.5 860L852 629.5L1100.5 795C1281.5 707 1370.67 688.167 1445.5 666L1500 363Z" stroke="black" stroke-width="80"/>
<path d="M4966.44 1715.01H4377.14L4264.72 1987H3963.72L4529.45 717.728H4819.57L5387.12 1987H5078.86L4966.44 1715.01ZM4873.97 1491.98L4672.7 1006.03L4471.43 1491.98H4873.97ZM5881.45 717.728H6175.2V1987H5881.45V717.728ZM6839.07 717.728H7415.68C7553.49 717.728 7674.98 744.323 7780.15 797.511C7886.52 849.491 7968.72 923.229 8026.75 1018.73C8085.98 1114.22 8115.6 1225.44 8115.6 1352.36C8115.6 1479.29 8085.98 1590.5 8026.75 1686C7968.72 1781.5 7886.52 1855.84 7780.15 1909.03C7674.98 1961.01 7553.49 1987 7415.68 1987H6839.07V717.728ZM7401.18 1745.84C7528.11 1745.84 7629.04 1710.78 7703.99 1640.67C7780.15 1569.35 7818.22 1473.25 7818.22 1352.36C7818.22 1231.48 7780.15 1135.98 7703.99 1065.87C7629.04 994.55 7528.11 958.89 7401.18 958.89H7132.82V1745.84H7401.18ZM9682.55 1751.28V1987H8699.77V717.728H9658.98V953.45H8991.71V1229.06H9581.01V1457.53H8991.71V1751.28H9682.55Z" fill="black"/>
</g>
<defs>
<clipPath id="clip0_263_164">
<rect width="10242" height="3281" fill="white"/>
</clipPath>
</defs>
</svg>
